<!-- keep-fill-style -->
<svg height="800px" width="800px" version="1.1" id="Layer_1" xmlns="http://www.w3.org/2000/svg"
	xmlns:xlink="http://www.w3.org/1999/xlink" viewBox="0 0 512 512" xml:space="preserve">
	<path style="fill:#FF8163;" d="M216.073,384.982l8.115,25.069c0.783,2.418,3.027,4.055,5.559,4.055h52.507
	c2.532,0,4.775-1.636,5.557-4.055l8.116-25.069H216.073z" />
	<path style="fill:#FFBAC5;" d="M512,387.883c0,2.965-2.425,5.39-5.39,5.39H5.39c-2.963,0-5.39-2.424-5.39-5.39V91.361
	c0-2.963,2.425-5.39,5.39-5.39H506.61c2.964,0,5.39,2.426,5.39,5.39L512,387.883L512,387.883z" />
	<path style="fill:#FFAA99;" d="M512,387.883c0,2.965-2.425,5.39-5.39,5.39H5.39c-2.963,0-5.39-2.424-5.39-5.39V91.361
	c0-2.963,2.425-5.39,5.39-5.39H506.61c2.964,0,5.39,2.426,5.39,5.39L512,387.883L512,387.883z" />
	<path style="fill:#AADDC0;" d="M281.262,434.306c-2.935,0-5.39-2.459-5.39-5.39v-95.9c0-2.976,2.413-5.388,5.39-5.388h38.316
	c2.978,0,5.39,2.413,5.39,5.388v95.692c0,4.042-4.507,6.683-8.035,4.696l-15.929-8.971l-17.193,9.233
	C283.014,434.092,282.138,434.306,281.262,434.306z" />
	<path style="fill:#EDE5CA;" d="M489.79,365.654c0,2.963-2.425,5.388-5.39,5.388H27.6c-2.964,0-5.39-2.424-5.39-5.388V83.083
	c0-2.963,2.425-5.39,5.39-5.39h456.8c2.964,0,5.39,2.426,5.39,5.39V365.654z" />
	<path style="fill:#FFF9E9;" d="M256,365.654c0,2.963-2.425,5.388-5.39,5.388H27.6c-2.964,0-5.39-2.424-5.39-5.388V83.083
	c0-2.963,2.425-5.39,5.39-5.39h223.012c2.963,0,5.39,2.426,5.39,5.39v282.571H256z" />
	<path style="opacity:0.1;enable-background:new    ;"
		d="M44.153,365.654V83.083c0-2.963,2.425-5.39,5.39-5.39H27.6
	c-2.964,0-5.39,2.426-5.39,5.39v282.572c0,2.963,2.425,5.387,5.39,5.387h21.943C46.578,371.043,44.153,368.618,44.153,365.654z" />
	<g>
		<path style="fill:#E84731;" d="M302.758,150.313h39.744c4.465,0,8.083-3.618,8.083-8.083c0-4.465-3.618-8.083-8.083-8.083h-39.744
		c-4.465,0-8.084,3.618-8.084,8.083C294.674,146.696,298.293,150.313,302.758,150.313z" />
		<path style="fill:#E84731;" d="M302.758,189.036h51.434c4.465,0,8.083-3.618,8.083-8.083s-3.618-8.083-8.083-8.083h-51.434
		c-4.465,0-8.084,3.618-8.084,8.083S298.293,189.036,302.758,189.036z" />
		<path style="fill:#E84731;" d="M302.758,227.759h133.869c4.465,0,8.083-3.618,8.083-8.083c0-4.465-3.618-8.083-8.083-8.083H302.758
		c-4.465,0-8.084,3.618-8.084,8.083S298.293,227.759,302.758,227.759z" />
		<path style="fill:#E84731;" d="M436.627,250.312H302.758c-4.465,0-8.084,3.621-8.084,8.085c0,4.465,3.62,8.083,8.084,8.083h133.869
		c4.465,0,8.083-3.618,8.083-8.083C444.712,253.932,441.093,250.312,436.627,250.312z" />
		<path style="fill:#E84731;" d="M436.627,289.034H302.758c-4.465,0-8.084,3.621-8.084,8.085c0,4.464,3.62,8.083,8.084,8.083h133.869
		c4.465,0,8.083-3.621,8.083-8.083C444.712,292.654,441.093,289.034,436.627,289.034z" />
	</g>
	<path style="fill:#CE3B2C;" d="M191.439,309.009H89.893c-4.465,0-8.084-3.618-8.084-8.083s3.62-8.083,8.084-8.083h101.546
	c4.465,0,8.084,3.618,8.084,8.083S195.904,309.009,191.439,309.009z" />
</svg>