<!-- keep -->
<svg viewBox="0 0 512 552">
	<path fill="#FF6465" d="M131.498,74.405L94.295,283.002L131.498,512h270.979c16.952,0,30.693-13.741,30.693-30.692V107.859
	L131.498,74.405z" />
	<path fill="#E65A5B" d="M57.094,74.405v406.903c0,16.951,13.741,30.692,30.693,30.692h43.711V74.405H57.094z" />
	<path fill="#0003" d="M433.169,174.242h-54.193l-72.382,106.958
	c-14.506,21.436-14.506,49.139,0,70.578l72.382,106.958h54.193V174.242z" />
	<path fill="#FF8080" d="M397.605,209.341l-61.942,91.53c-6.383,9.433-6.383,21.802,0,31.236l61.942,91.53h57.301V209.341
	H397.605z" />
	<circle fill="#E65A5B" cx="381.187" cy="316.488" r="14.732" />
	<g>
		<polygon fill="#FFFFFF" points="433.169,107.86 122.604,125.246 80.457,74.404 122.604,23.563 433.169,40.949 	" />
		<path fill="#FFFFFF" d="M131.498,107.859c-18.447,0-33.455-15.007-33.455-33.454s15.008-33.456,33.455-33.456h301.671v66.91
		H131.498z" />
	</g>
	<path fill="#FF8080" d="M131.498,40.949h301.671V0H131.498C90.405,0,57.094,33.312,57.094,74.404v0.001
	c0,41.092,33.312,74.404,74.404,74.404h301.672V107.86H131.498c-18.448-0.001-33.455-15.008-33.455-33.455
	S113.05,40.949,131.498,40.949z" />
	<g>
		<circle fill="#ffffff" cx="330" cy="410" r="130" stroke="#E65A5B" stroke-width="18px" />
		<rect x="255" y="400" fill="#E65A5B" width="150" height="25" />
		<rect x="320" y="340" fill="#E65A5B" width="25" height="150" />
	</g>
</svg>