<svg width="25" height="24" viewBox="0 0 25 24" fill="none" xmlns="http://www.w3.org/2000/svg">
<path fill-rule="evenodd" clip-rule="evenodd" d="M12.5 3.25C12.9142 3.25 13.25 3.58579 13.25 4L13.25 18.1893L17.9697 13.4697C18.2626 13.1768 18.7374 13.1768 19.0303 13.4697C19.3232 13.7626 19.3232 14.2374 19.0303 14.5303L13.0303 20.5303C12.8897 20.671 12.6989 20.75 12.5 20.75C12.3011 20.75 12.1103 20.671 11.9697 20.5303L5.96967 14.5303C5.67678 14.2374 5.67678 13.7626 5.96967 13.4697C6.26256 13.1768 6.73744 13.1768 7.03033 13.4697L11.75 18.1893L11.75 4C11.75 3.58579 12.0858 3.25 12.5 3.25Z" fill="#55555E"/>
</svg>
