<svg width="25" height="24" viewBox="0 0 25 24" fill="none" xmlns="http://www.w3.org/2000/svg">
<path d="M12.5 2.25C7.124 2.25 2.75 6.624 2.75 12C2.75 17.376 7.124 21.75 12.5 21.75C17.876 21.75 22.25 17.376 22.25 12C22.25 6.624 17.876 2.25 12.5 2.25ZM4.25 12C4.25 7.451 7.951 3.75 12.5 3.75C14.505 3.75 16.344 4.47 17.775 5.664L6.164 17.275C4.97 15.844 4.25 14.005 4.25 12ZM12.5 20.25C10.495 20.25 8.656 19.53 7.225 18.336L18.836 6.725C20.03 8.156 20.75 9.995 20.75 12C20.75 16.549 17.049 20.25 12.5 20.25Z" fill="#55555E"/>
</svg>
