<svg width="25" height="24" viewBox="0 0 25 24" fill="none" xmlns="http://www.w3.org/2000/svg">
<path fill-rule="evenodd" clip-rule="evenodd" d="M7.7626 3.26045C7.88219 2.13044 8.83828 1.25 10 1.25H15C16.1617 1.25 17.1178 2.13044 17.2374 3.26045C18.0005 3.27599 18.6603 3.31546 19.2236 3.41895C19.9816 3.55818 20.6267 3.82342 21.1517 4.34835C21.7536 4.95027 22.0125 5.70814 22.1335 6.60825C22.25 7.47522 22.25 8.57754 22.25 9.94513V16.0549C22.25 17.4225 22.25 18.5248 22.1335 19.3918C22.0125 20.2919 21.7536 21.0497 21.1517 21.6517C20.5497 22.2536 19.7919 22.5125 18.8918 22.6335C18.0248 22.75 16.9225 22.75 15.5549 22.75H9.44513C8.07754 22.75 6.97522 22.75 6.10825 22.6335C5.20814 22.5125 4.45027 22.2536 3.84835 21.6517C3.24643 21.0497 2.98754 20.2919 2.86652 19.3918C2.74996 18.5248 2.74998 17.4225 2.75 16.0549V9.94513C2.74998 8.57754 2.74996 7.47522 2.86652 6.60825C2.98754 5.70814 3.24643 4.95027 3.84835 4.34835C4.37328 3.82342 5.01835 3.55818 5.77635 3.41895C6.33973 3.31546 6.99952 3.27599 7.7626 3.26045ZM7.76496 4.76087C7.04678 4.7762 6.49336 4.81234 6.04735 4.89426C5.48054 4.99838 5.15246 5.16556 4.90901 5.40901C4.63225 5.68577 4.4518 6.07435 4.35315 6.80812C4.25159 7.56347 4.25 8.56458 4.25 10V16C4.25 17.4354 4.25159 18.4365 4.35315 19.1919C4.4518 19.9257 4.63225 20.3142 4.90901 20.591C5.18577 20.8678 5.57435 21.0482 6.30812 21.1469C7.06347 21.2484 8.06458 21.25 9.5 21.25H15.5C16.9354 21.25 17.9365 21.2484 18.6919 21.1469C19.4257 21.0482 19.8142 20.8678 20.091 20.591C20.3678 20.3142 20.5482 19.9257 20.6469 19.1919C20.7484 18.4365 20.75 17.4354 20.75 16V10C20.75 8.56458 20.7484 7.56347 20.6469 6.80812C20.5482 6.07434 20.3678 5.68577 20.091 5.40901C19.8475 5.16556 19.5195 4.99838 18.9527 4.89426C18.5066 4.81234 17.9532 4.7762 17.235 4.76087C17.1058 5.88062 16.1544 6.75 15 6.75H10C8.84559 6.75 7.89424 5.88062 7.76496 4.76087ZM10 2.75C9.58579 2.75 9.25 3.08579 9.25 3.5V4.5C9.25 4.91421 9.58579 5.25 10 5.25H15C15.4142 5.25 15.75 4.91421 15.75 4.5V3.5C15.75 3.08579 15.4142 2.75 15 2.75H10ZM6.75 10.5C6.75 10.0858 7.08579 9.75 7.5 9.75H17.5C17.9142 9.75 18.25 10.0858 18.25 10.5C18.25 10.9142 17.9142 11.25 17.5 11.25H7.5C7.08579 11.25 6.75 10.9142 6.75 10.5ZM7.75 14C7.75 13.5858 8.08579 13.25 8.5 13.25H16.5C16.9142 13.25 17.25 13.5858 17.25 14C17.25 14.4142 16.9142 14.75 16.5 14.75H8.5C8.08579 14.75 7.75 14.4142 7.75 14ZM8.75 17.5C8.75 17.0858 9.08579 16.75 9.5 16.75H15.5C15.9142 16.75 16.25 17.0858 16.25 17.5C16.25 17.9142 15.9142 18.25 15.5 18.25H9.5C9.08579 18.25 8.75 17.9142 8.75 17.5Z" fill="#55555E"/>
</svg>
