<svg width="25" height="24" viewBox="0 0 25 24" fill="none" xmlns="http://www.w3.org/2000/svg">
<path d="M9.5 17.75C9.09 17.75 8.75 17.41 8.75 17V12.81L8.03 13.53C7.74 13.82 7.26 13.82 6.97 13.53C6.68 13.24 6.68 12.76 6.97 12.47L8.97 10.47C9.18 10.26 9.51 10.19 9.79 10.31C10.07 10.42 10.25 10.7 10.25 11V17C10.25 17.41 9.91 17.75 9.5 17.75Z" fill="#55555E"/>
<path d="M11.5 13.75C11.31 13.75 11.12 13.68 10.97 13.53L8.97 11.53C8.68 11.24 8.68 10.76 8.97 10.47C9.26 10.18 9.74 10.18 10.03 10.47L12.03 12.47C12.32 12.76 12.32 13.24 12.03 13.53C11.88 13.68 11.69 13.75 11.5 13.75Z" fill="#55555E"/>
<path d="M15.5 22.75H9.5C4.07 22.75 1.75 20.43 1.75 15V9C1.75 3.57 4.07 1.25 9.5 1.25H14.5C14.91 1.25 15.25 1.59 15.25 2C15.25 2.41 14.91 2.75 14.5 2.75H9.5C4.89 2.75 3.25 4.39 3.25 9V15C3.25 19.61 4.89 21.25 9.5 21.25H15.5C20.11 21.25 21.75 19.61 21.75 15V10C21.75 9.59 22.09 9.25 22.5 9.25C22.91 9.25 23.25 9.59 23.25 10V15C23.25 20.43 20.93 22.75 15.5 22.75Z" fill="#55555E"/>
<path d="M22.5 10.75H18.5C15.08 10.75 13.75 9.42 13.75 6V2C13.75 1.7 13.93 1.42 14.21 1.31C14.49 1.19 14.81 1.26 15.03 1.47L23.03 9.47C23.24 9.68 23.31 10.01 23.19 10.29C23.07 10.57 22.8 10.75 22.5 10.75ZM15.25 3.81V6C15.25 8.58 15.92 9.25 18.5 9.25H20.69L15.25 3.81Z" fill="#55555E"/>
</svg>
