<svg width="25" height="24" viewBox="0 0 25 24" fill="none" xmlns="http://www.w3.org/2000/svg">
<path fill-rule="evenodd" clip-rule="evenodd" d="M12.5 2.75C9.04822 2.75 6.25 5.54822 6.25 9C6.25 12.4518 9.04822 15.25 12.5 15.25C15.9518 15.25 18.75 12.4518 18.75 9C18.75 5.54822 15.9518 2.75 12.5 2.75ZM4.75 9C4.75 4.71979 8.21979 1.25 12.5 1.25C16.7802 1.25 20.25 4.71979 20.25 9C20.25 11.2254 19.312 13.2317 17.8098 14.6452C17.8359 14.6939 17.857 14.7462 17.8722 14.8017L18.5217 17.1709C18.8252 18.2776 19.0696 19.169 19.1807 19.8607C19.2897 20.5387 19.312 21.2371 18.9326 21.8048C18.7166 22.128 18.4233 22.3927 18.0766 22.5692C17.4468 22.8899 16.7599 22.7318 16.1446 22.4995C15.517 22.2625 14.7288 21.8518 13.7607 21.3474L13.7141 21.3231C12.9899 20.9457 12.8008 20.861 12.6191 20.8417C12.5399 20.8332 12.4601 20.8332 12.3809 20.8417C12.1992 20.861 12.0101 20.9457 11.2859 21.3231L11.2393 21.3474C10.2712 21.8518 9.48303 22.2625 8.85539 22.4995C8.24006 22.7318 7.5532 22.8899 6.92341 22.5692C6.57674 22.3927 6.28341 22.128 6.06741 21.8048C5.688 21.2371 5.71031 20.5387 5.81926 19.8607C5.93043 19.169 6.17482 18.2776 6.47827 17.1709L7.1278 14.8017C7.14302 14.7462 7.16409 14.6939 7.19015 14.6452C5.68798 13.2317 4.75 11.2254 4.75 9ZM8.46016 15.6151L7.93755 17.5213C7.61851 18.685 7.39691 19.4973 7.30026 20.0987C7.19985 20.7235 7.2747 20.9117 7.31454 20.9713C7.39239 21.0878 7.49326 21.1761 7.60403 21.2325C7.62687 21.2441 7.77015 21.3058 8.32563 21.0961C8.85876 20.8949 9.56684 20.5274 10.5928 19.9928C10.6276 19.9747 10.6621 19.9567 10.6962 19.9389C11.2642 19.6421 11.7211 19.4035 12.222 19.3501C12.4068 19.3304 12.5932 19.3304 12.778 19.3501C13.2789 19.4035 13.7358 19.6421 14.3038 19.9389C14.3379 19.9567 14.3724 19.9747 14.4072 19.9928C15.4332 20.5274 16.1412 20.8949 16.6744 21.0961C17.2299 21.3058 17.3731 21.2441 17.396 21.2325C17.5067 21.1761 17.6076 21.0878 17.6855 20.9713C17.7253 20.9117 17.8002 20.7235 17.6997 20.0987C17.6031 19.4973 17.3815 18.685 17.0625 17.5213L16.5398 15.6151C15.3635 16.335 13.9802 16.75 12.5 16.75C11.0198 16.75 9.63652 16.335 8.46016 15.6151ZM12.5 7.03449C12.4419 7.13513 12.3772 7.25103 12.301 7.38769L12.2027 7.56405C12.1958 7.5765 12.1884 7.59009 12.1804 7.60466C12.1019 7.74827 11.9718 7.9861 11.755 8.15071C11.5336 8.31877 11.2673 8.37659 11.1116 8.4104C11.096 8.41379 11.0815 8.41693 11.0683 8.41992L10.8774 8.46312C10.7022 8.50275 10.5595 8.53509 10.4375 8.56575C10.5169 8.66345 10.6199 8.78474 10.754 8.94154L10.8842 9.09372C10.8934 9.10452 10.9035 9.11609 10.9141 9.12841C11.0221 9.25273 11.1963 9.45346 11.2769 9.71261C11.3566 9.96869 11.3291 10.2324 11.3118 10.3988C11.31 10.4154 11.3084 10.431 11.307 10.4456L11.2873 10.6487C11.2691 10.8369 11.2549 10.9872 11.2455 11.1094C11.3497 11.0635 11.4682 11.0089 11.609 10.9441L11.7878 10.8618C11.8001 10.8561 11.8136 10.8498 11.8281 10.8429C11.9716 10.7752 12.2213 10.6575 12.5 10.6575C12.7787 10.6575 13.0284 10.7752 13.1719 10.8429C13.1864 10.8498 13.1999 10.8561 13.2122 10.8618L13.391 10.9441C13.5318 11.0089 13.6503 11.0635 13.7545 11.1094C13.7451 10.9872 13.7309 10.8369 13.7127 10.6487L13.693 10.4456C13.6916 10.431 13.69 10.4154 13.6882 10.3988C13.6709 10.2324 13.6434 9.96869 13.7231 9.71261C13.8037 9.45346 13.9779 9.25273 14.0859 9.12841C14.0965 9.11609 14.1066 9.10452 14.1158 9.09372L14.246 8.94153C14.3801 8.78474 14.4831 8.66345 14.5625 8.56575C14.4405 8.53509 14.2978 8.50275 14.1226 8.46312L13.9317 8.41992C13.9185 8.41693 13.904 8.41379 13.8884 8.4104C13.7327 8.37659 13.4664 8.31877 13.245 8.15071C13.0282 7.9861 12.8981 7.74827 12.8196 7.60466C12.8116 7.59009 12.8042 7.5765 12.7973 7.56405L12.699 7.38769C12.6228 7.25103 12.5581 7.13513 12.5 7.03449ZM11.5135 5.79963C11.6857 5.57481 11.9983 5.25 12.5 5.25C13.0017 5.25 13.3143 5.57481 13.4865 5.79963C13.6508 6.01421 13.8163 6.31124 13.986 6.61577C13.9937 6.62961 14.0014 6.64347 14.0091 6.65734L14.1075 6.83369C14.1303 6.87459 14.1482 6.90677 14.1639 6.9343C14.1912 6.94071 14.223 6.94792 14.2627 6.95691L14.4536 7.0001C14.4693 7.00364 14.4849 7.00717 14.5005 7.0107C14.8284 7.08478 15.1542 7.15839 15.4042 7.25695C15.6804 7.36577 16.0547 7.5777 16.1989 8.04161C16.3407 8.49734 16.1618 8.88336 16.0056 9.13146C15.8611 9.36108 15.6414 9.61786 15.4165 9.88074C15.4063 9.89262 15.3962 9.90452 15.386 9.91642L15.2558 10.0686C15.2213 10.1089 15.1953 10.1394 15.1735 10.1657C15.1764 10.202 15.1805 10.2443 15.186 10.3009L15.2057 10.504C15.2072 10.5195 15.2087 10.5349 15.2102 10.5504C15.2444 10.9023 15.2774 11.2424 15.2653 11.5145C15.2526 11.7997 15.1841 12.2315 14.7969 12.5254C14.3975 12.8286 13.9564 12.7626 13.6767 12.6824C13.419 12.6086 13.1144 12.4682 12.8077 12.3269C12.793 12.3201 12.7783 12.3134 12.7636 12.3066L12.5849 12.2243C12.5514 12.2089 12.524 12.1963 12.5 12.1854C12.476 12.1963 12.4486 12.2089 12.4151 12.2243L12.2364 12.3066C12.2217 12.3134 12.207 12.3201 12.1923 12.3269C11.8856 12.4682 11.581 12.6086 11.3233 12.6824C11.0436 12.7626 10.6025 12.8286 10.2031 12.5254C9.81589 12.2315 9.74743 11.7997 9.73473 11.5145C9.72261 11.2424 9.75563 10.9023 9.78981 10.5504C9.79131 10.5349 9.79281 10.5195 9.79432 10.504L9.81399 10.3009C9.81948 10.2443 9.82356 10.202 9.82655 10.1657C9.80465 10.1394 9.77866 10.1089 9.74418 10.0686L9.61403 9.91642C9.60385 9.90452 9.59367 9.89262 9.58351 9.88074C9.3586 9.61786 9.13891 9.36108 8.99436 9.13146C8.83817 8.88336 8.65934 8.49734 8.80105 8.04161C8.94532 7.5777 9.31962 7.36577 9.59576 7.25695C9.84585 7.15839 10.1716 7.08478 10.4995 7.0107C10.5151 7.00717 10.5307 7.00364 10.5463 7.0001L10.7373 6.95691C10.777 6.94792 10.8088 6.94071 10.8361 6.9343C10.8518 6.90677 10.8697 6.87459 10.8925 6.83369L10.9909 6.65734C10.9986 6.64347 11.0063 6.62961 11.014 6.61577C11.1837 6.31124 11.3492 6.01421 11.5135 5.79963Z" fill="#4E4E54"/>
</svg>
