<svg width="25" height="24" viewBox="0 0 25 24" fill="none" xmlns="http://www.w3.org/2000/svg">
<path fill-rule="evenodd" clip-rule="evenodd" d="M12.4451 1.25H12.5549C13.9225 1.24998 15.0248 1.24996 15.8918 1.36652C16.7919 1.48754 17.5497 1.74643 18.1517 2.34835C18.8916 3.08833 19.1205 4.07517 19.2012 5.29943C19.4462 5.31578 19.6763 5.33755 19.8918 5.36652C20.7919 5.48754 21.5497 5.74643 22.1517 6.34835C22.7536 6.95027 23.0125 7.70814 23.1335 8.60825C23.25 9.47522 23.25 10.5775 23.25 11.9451V12.0549C23.25 13.4225 23.25 14.5248 23.1335 15.3918C23.0125 16.2919 22.7536 17.0497 22.1517 17.6517C21.4117 18.3916 20.4248 18.6205 19.2006 18.7012C19.1842 18.9462 19.1625 19.1763 19.1335 19.3918C19.0125 20.2919 18.7536 21.0497 18.1517 21.6517C17.5497 22.2536 16.7919 22.5125 15.8918 22.6335C15.0248 22.75 13.9225 22.75 12.5549 22.75H12.4451C11.0775 22.75 9.97522 22.75 9.10825 22.6335C8.20814 22.5125 7.45027 22.2536 6.84835 21.6517C6.24643 21.0497 5.98754 20.2919 5.86652 19.3918C5.83755 19.1763 5.81578 18.9462 5.79942 18.7012C4.57517 18.6205 3.58833 18.3916 2.84835 17.6517C2.24643 17.0497 1.98754 16.2919 1.86652 15.3918C1.74996 14.5248 1.74998 13.4225 1.75 12.0549V11.9451C1.74998 10.5775 1.74996 9.47522 1.86652 8.60825C1.98754 7.70814 2.24643 6.95027 2.84835 6.34835C3.45027 5.74643 4.20814 5.48754 5.10825 5.36652C5.32374 5.33755 5.55377 5.31578 5.79879 5.29943C5.87952 4.07517 6.10837 3.08833 6.84835 2.34835C7.45027 1.74643 8.20814 1.48754 9.10825 1.36652C9.97522 1.24996 11.0775 1.24998 12.4451 1.25ZM7.30714 5.25295C7.66406 5.24999 8.04313 5.24999 8.44512 5.25H16.5549C16.9569 5.24999 17.3359 5.24999 17.6929 5.25295C17.6109 4.23209 17.4265 3.74452 17.091 3.40901C16.8142 3.13225 16.4257 2.9518 15.6919 2.85315C14.9365 2.75159 13.9354 2.75 12.5 2.75C11.0646 2.75 10.0635 2.75159 9.30812 2.85315C8.57434 2.9518 8.18577 3.13225 7.90901 3.40901C7.5735 3.74452 7.38909 4.23209 7.30714 5.25295ZM5.75294 17.1929C5.74999 16.8359 5.74999 16.4569 5.75 16.0549L5.75 15.75H5.5C5.08579 15.75 4.75 15.4142 4.75 15C4.75 14.5858 5.08579 14.25 5.5 14.25H19.5C19.9142 14.25 20.25 14.5858 20.25 15C20.25 15.4142 19.9142 15.75 19.5 15.75H19.25V16.0549C19.25 16.4569 19.25 16.8359 19.2471 17.1929C20.2679 17.1109 20.7555 16.9265 21.091 16.591C21.3678 16.3142 21.5482 15.9257 21.6469 15.1919C21.7484 14.4365 21.75 13.4354 21.75 12C21.75 10.5646 21.7484 9.56347 21.6469 8.80812C21.5482 8.07435 21.3678 7.68577 21.091 7.40901C20.8142 7.13225 20.4257 6.9518 19.6919 6.85315C18.9365 6.75159 17.9354 6.75 16.5 6.75H8.5C7.06458 6.75 6.06347 6.75159 5.30812 6.85315C4.57435 6.9518 4.18577 7.13225 3.90901 7.40901C3.63225 7.68577 3.4518 8.07435 3.35315 8.80812C3.25159 9.56347 3.25 10.5646 3.25 12C3.25 13.4354 3.25159 14.4365 3.35315 15.1919C3.4518 15.9257 3.63225 16.3142 3.90901 16.591C4.24452 16.9265 4.73209 17.1109 5.75294 17.1929ZM17.75 15.75H7.25V16C7.25 17.4354 7.25159 18.4365 7.35315 19.1919C7.4518 19.9257 7.63225 20.3142 7.90901 20.591C8.18577 20.8678 8.57435 21.0482 9.30812 21.1469C10.0635 21.2484 11.0646 21.25 12.5 21.25C13.9354 21.25 14.9365 21.2484 15.6919 21.1469C16.4257 21.0482 16.8142 20.8678 17.091 20.591C17.3678 20.3142 17.5482 19.9257 17.6469 19.1919C17.7484 18.4365 17.75 17.4354 17.75 16V15.75ZM5.75 10C5.75 9.58579 6.08579 9.25 6.5 9.25H9.5C9.91422 9.25 10.25 9.58579 10.25 10C10.25 10.4142 9.91422 10.75 9.5 10.75H6.5C6.08579 10.75 5.75 10.4142 5.75 10Z" fill="#55555E"/>
<path d="M18.5 10C18.5 10.5523 18.0523 11 17.5 11C16.9477 11 16.5 10.5523 16.5 10C16.5 9.44772 16.9477 9 17.5 9C18.0523 9 18.5 9.44772 18.5 10Z" fill="#55555E"/>
</svg>
