<svg width="25" height="24" viewBox="0 0 25 24" fill="none" xmlns="http://www.w3.org/2000/svg">
<path fill-rule="evenodd" clip-rule="evenodd" d="M12.5 2.75C7.39137 2.75 3.25 6.89137 3.25 12C3.25 17.1086 7.39137 21.25 12.5 21.25C17.6086 21.25 21.75 17.1086 21.75 12C21.75 6.89137 17.6086 2.75 12.5 2.75ZM1.75 12C1.75 6.06294 6.56294 1.25 12.5 1.25C18.4371 1.25 23.25 6.06294 23.25 12C23.25 17.9371 18.4371 22.75 12.5 22.75C6.56294 22.75 1.75 17.9371 1.75 12ZM8.96967 12.9697L11.9697 9.96967C12.2626 9.67678 12.7374 9.67678 13.0303 9.96967L16.0303 12.9697C16.3232 13.2626 16.3232 13.7374 16.0303 14.0303C15.7374 14.3232 15.2626 14.3232 14.9697 14.0303L12.5 11.5607L10.0303 14.0303C9.73744 14.3232 9.26256 14.3232 8.96967 14.0303C8.67678 13.7374 8.67678 13.2626 8.96967 12.9697Z" fill="#55555E"/>
</svg>
