<svg width="25" height="24" viewBox="0 0 25 24" fill="none" xmlns="http://www.w3.org/2000/svg">
<path d="M12.5 7.25C12.9142 7.25 13.25 7.58579 13.25 8V12C13.25 12.4142 12.9142 12.75 12.5 12.75C12.0858 12.75 11.75 12.4142 11.75 12V8C11.75 7.58579 12.0858 7.25 12.5 7.25Z" fill="#55555E"/>
<path d="M12.5 16C13.0523 16 13.5 15.5523 13.5 15C13.5 14.4477 13.0523 14 12.5 14C11.9477 14 11.5 14.4477 11.5 15C11.5 15.5523 11.9477 16 12.5 16Z" fill="#55555E"/>
<path fill-rule="evenodd" clip-rule="evenodd" d="M9.22339 2.05112C10.6673 1.55658 11.5625 1.25 12.5 1.25C13.4375 1.25 14.3327 1.55658 15.7766 2.05112L16.504 2.30013C17.9854 2.8072 19.1286 3.19852 19.947 3.53099C20.3592 3.69846 20.7136 3.86067 20.999 4.02641C21.2737 4.1859 21.5492 4.38484 21.7364 4.65154C21.9214 4.91516 22.0171 5.23924 22.0772 5.55122C22.1397 5.87556 22.1774 6.26464 22.2017 6.71136C22.25 7.5984 22.25 8.81361 22.25 10.3898V11.9914C22.25 18.0924 17.642 21.0175 14.9017 22.2146L14.8746 22.2264C14.5348 22.3749 14.2154 22.5144 13.8484 22.6084C13.4609 22.7076 13.0493 22.75 12.5 22.75C11.9507 22.75 11.5391 22.7076 11.1516 22.6084C10.7846 22.5144 10.4652 22.3749 10.1254 22.2264L10.0983 22.2146C7.35803 21.0175 2.75 18.0924 2.75 11.9914V10.3899C2.75 8.81366 2.75 7.59841 2.7983 6.71136C2.82262 6.26464 2.86031 5.87556 2.92281 5.55122C2.98293 5.23924 3.0786 4.91516 3.26363 4.65154C3.45082 4.38484 3.72634 4.1859 4.00098 4.02641C4.28637 3.86067 4.64078 3.69846 5.05303 3.53099C5.8714 3.19852 7.01462 2.8072 8.49595 2.30014L9.22339 2.05112ZM12.5 2.75C11.8423 2.75 11.1951 2.96164 9.58062 3.5143L9.0078 3.71037C7.49521 4.22814 6.3921 4.60605 5.61759 4.92069C5.231 5.07774 4.9509 5.20935 4.75429 5.32353C4.65722 5.3799 4.59034 5.42642 4.54567 5.46273C4.5078 5.49351 4.49336 5.51095 4.49129 5.51349C4.48936 5.51663 4.47693 5.5374 4.45943 5.58654C4.43944 5.64265 4.41729 5.72309 4.39571 5.83506C4.35204 6.06169 4.31894 6.37301 4.29608 6.79292C4.25028 7.63411 4.25 8.80833 4.25 10.4167V11.9914C4.25 17.1665 8.1199 19.7135 10.6988 20.84C11.0703 21.0023 11.2848 21.0941 11.5236 21.1552C11.7517 21.2136 12.03 21.25 12.5 21.25C12.97 21.25 13.2483 21.2136 13.4764 21.1552C13.7152 21.0941 13.9297 21.0023 14.3012 20.84C16.8801 19.7135 20.75 17.1665 20.75 11.9914V10.4167C20.75 8.80833 20.7497 7.63411 20.7039 6.79292C20.6811 6.37301 20.648 6.06169 20.6043 5.83506C20.5827 5.72309 20.5606 5.64265 20.5406 5.58654C20.5231 5.53737 20.5106 5.5166 20.5087 5.51348C20.5066 5.51092 20.4922 5.49349 20.4543 5.46273C20.4097 5.42642 20.3428 5.3799 20.2457 5.32353C20.0491 5.20935 19.769 5.07774 19.3824 4.92069C18.6079 4.60605 17.5048 4.22814 15.9922 3.71037L15.4194 3.5143C13.8049 2.96164 13.1577 2.75 12.5 2.75Z" fill="#55555E"/>
</svg>
