<svg width="25" height="24" viewBox="0 0 25 24" fill="none" xmlns="http://www.w3.org/2000/svg">
<path fill-rule="evenodd" clip-rule="evenodd" d="M16.5 5.25C16.7029 5.25 16.8972 5.33222 17.0384 5.47789L21.0384 9.60289C21.3268 9.90026 21.3195 10.3751 21.0221 10.6634C20.7247 10.9518 20.2499 10.9445 19.9616 10.6471L17.25 7.8508L17.25 18C17.25 18.4142 16.9142 18.75 16.5 18.75C16.0858 18.75 15.75 18.4142 15.75 18L15.75 7.8508L13.0384 10.6471C12.7501 10.9445 12.2753 10.9518 11.9779 10.6634C11.6805 10.3751 11.6732 9.90026 11.9616 9.60289L15.9616 5.47789C16.1028 5.33222 16.2971 5.25 16.5 5.25ZM8.5 5.25C8.91421 5.25 9.25 5.58579 9.25 6L9.25 16.1492L11.9616 13.3529C12.2499 13.0555 12.7247 13.0482 13.0221 13.3366C13.3195 13.6249 13.3268 14.0997 13.0384 14.3971L9.03843 18.5221C8.89717 18.6678 8.70291 18.75 8.5 18.75C8.29709 18.75 8.10283 18.6678 7.96158 18.5221L3.96158 14.3971C3.67322 14.0997 3.68053 13.6249 3.97789 13.3366C4.27526 13.0482 4.75007 13.0555 5.03843 13.3529L7.75 16.1492L7.75 6C7.75 5.58579 8.08579 5.25 8.5 5.25Z" fill="#626262"/>
</svg>
