<svg width="25" height="24" viewBox="0 0 25 24" fill="none" xmlns="http://www.w3.org/2000/svg">
<path fill-rule="evenodd" clip-rule="evenodd" d="M23.25 7C23.25 7.41421 22.9142 7.75 22.5 7.75L2.5 7.75C2.08579 7.75 1.75 7.41421 1.75 7C1.75 6.58579 2.08579 6.25 2.5 6.25L22.5 6.25C22.9142 6.25 23.25 6.58579 23.25 7Z" fill="#55555E"/>
<path fill-rule="evenodd" clip-rule="evenodd" d="M20.25 12C20.25 12.4142 19.9142 12.75 19.5 12.75L5.5 12.75C5.08579 12.75 4.75 12.4142 4.75 12C4.75 11.5858 5.08579 11.25 5.5 11.25L19.5 11.25C19.9142 11.25 20.25 11.5858 20.25 12Z" fill="#55555E"/>
<path fill-rule="evenodd" clip-rule="evenodd" d="M17.25 17C17.25 17.4142 16.9142 17.75 16.5 17.75H8.5C8.08579 17.75 7.75 17.4142 7.75 17C7.75 16.5858 8.08579 16.25 8.5 16.25H16.5C16.9142 16.25 17.25 16.5858 17.25 17Z" fill="#55555E"/>
</svg>
