<svg width="25" height="24" viewBox="0 0 25 24" fill="none" xmlns="http://www.w3.org/2000/svg">
<path fill-rule="evenodd" clip-rule="evenodd" d="M17.2628 3.28854C17.5691 3.18645 17.9063 3.29179 18.1 3.55005L21.1 7.55005C21.3485 7.88142 21.2814 8.35152 20.95 8.60005C20.6186 8.84858 20.1485 8.78142 19.9 8.45005L18.25 6.25005V20C18.25 20.4143 17.9142 20.75 17.5 20.75C17.0858 20.75 16.75 20.4143 16.75 20V4.00005C16.75 3.67723 16.9566 3.39062 17.2628 3.28854ZM13.5 8.75005H4.5V7.25005H13.5V8.75005ZM13.5 13.75H6.5V12.25H13.5V13.75ZM13.5 18.75H8.5V17.25H13.5V18.75Z" fill="#626262"/>
</svg>
