<svg width="25" height="24" viewBox="0 0 25 24" fill="none" xmlns="http://www.w3.org/2000/svg">
<path fill-rule="evenodd" clip-rule="evenodd" d="M17.5 3.25C17.9142 3.25 18.25 3.58579 18.25 4V17.75L19.9 15.55C20.1485 15.2186 20.6186 15.1515 20.95 15.4C21.2814 15.6485 21.3485 16.1186 21.1 16.45L18.1 20.45C17.9063 20.7083 17.5691 20.8136 17.2628 20.7115C16.9566 20.6094 16.75 20.3228 16.75 20V4C16.75 3.58579 17.0858 3.25 17.5 3.25ZM7.75 6C7.75 5.58579 8.08579 5.25 8.5 5.25H13.5C13.9142 5.25 14.25 5.58579 14.25 6C14.25 6.41421 13.9142 6.75 13.5 6.75H8.5C8.08579 6.75 7.75 6.41421 7.75 6ZM5.75 11C5.75 10.5858 6.08579 10.25 6.5 10.25H13.5C13.9142 10.25 14.25 10.5858 14.25 11C14.25 11.4142 13.9142 11.75 13.5 11.75H6.5C6.08579 11.75 5.75 11.4142 5.75 11ZM3.75 16C3.75 15.5858 4.08579 15.25 4.5 15.25H13.5C13.9142 15.25 14.25 15.5858 14.25 16C14.25 16.4142 13.9142 16.75 13.5 16.75H4.5C4.08579 16.75 3.75 16.4142 3.75 16Z" fill="#626262"/>
</svg>
