<svg width="25" height="24" viewBox="0 0 25 24" fill="none" xmlns="http://www.w3.org/2000/svg">
<path fill-rule="evenodd" clip-rule="evenodd" d="M10.731 4.08001C10.4469 4.08001 10.1888 4.24561 10.0704 4.50388L9.28494 6.21728C9.16763 6.47318 8.91194 6.63723 8.63044 6.63723H6.0966C5.71516 6.63723 5.40594 6.94645 5.40594 7.32789V8.37256C5.40594 8.50757 5.5154 8.61702 5.65042 8.61702H18.8694C19.0044 8.61702 19.1138 8.50757 19.1138 8.37256V7.32789C19.1138 6.94645 18.8046 6.63723 18.4232 6.63723H15.8894C15.6078 6.63723 15.3522 6.47318 15.2349 6.21728L14.4494 4.50388C14.3309 4.24561 14.0729 4.08001 13.7888 4.08001H10.731ZM8.76141 3.9038C9.11443 3.13372 9.88387 2.64001 10.731 2.64001H13.7888C14.6359 2.64001 15.4054 3.13372 15.7583 3.90379L16.3513 5.19723H18.4232C19.5999 5.19723 20.5538 6.15116 20.5538 7.32789V8.37256C20.5538 9.30287 19.7997 10.057 18.8694 10.057H5.65042C4.72011 10.057 3.96594 9.30287 3.96594 8.37256V7.32789C3.96594 6.15116 4.91987 5.19723 6.0966 5.19723H8.16846L8.76141 3.9038Z" fill="#55555E"/>
<path fill-rule="evenodd" clip-rule="evenodd" d="M6.1644 8.68872C6.56204 8.68872 6.8844 9.01108 6.8844 9.40872V17.747C6.8844 18.9558 7.84984 19.9205 9.0219 19.9205H15.4989C16.6709 19.9205 17.6364 18.9558 17.6364 17.747V9.40872C17.6364 9.01108 17.9588 8.68872 18.3564 8.68872C18.754 8.68872 19.0764 9.01108 19.0764 9.40872V17.747C19.0764 19.7341 17.4832 21.3605 15.4989 21.3605H9.0219C7.03765 21.3605 5.4444 19.7341 5.4444 17.747V9.40872C5.4444 9.01108 5.76676 8.68872 6.1644 8.68872Z" fill="#55555E"/>
<path fill-rule="evenodd" clip-rule="evenodd" d="M10.6372 12.0637C11.0348 12.0637 11.3572 12.3861 11.3572 12.7837V17.1118C11.3572 17.5094 11.0348 17.8318 10.6372 17.8318C10.2396 17.8318 9.91718 17.5094 9.91718 17.1118V12.7837C9.91718 12.3861 10.2396 12.0637 10.6372 12.0637ZM13.8824 12.0637C14.28 12.0637 14.6024 12.3861 14.6024 12.7837V17.1118C14.6024 17.5094 14.28 17.8318 13.8824 17.8318C13.4848 17.8318 13.1624 17.5094 13.1624 17.1118V12.7837C13.1624 12.3861 13.4848 12.0637 13.8824 12.0637Z" fill="#55555E"/>
</svg>
