<svg width="25" height="24" viewBox="0 0 25 24" fill="none" xmlns="http://www.w3.org/2000/svg">
<path d="M9.75871 7.97395C10.0631 7.693 10.0821 7.21851 9.8011 6.91414C9.52015 6.60978 9.04565 6.5908 8.74129 6.87175L6.49129 8.94867C6.33748 9.09065 6.25 9.29045 6.25 9.49977C6.25 9.7091 6.33748 9.9089 6.49129 10.0509L8.74129 12.1278C9.04565 12.4088 9.52015 12.3898 9.8011 12.0854C10.0821 11.781 10.0631 11.3065 9.75871 11.0256L8.91824 10.2498H14.5385C15.2376 10.2498 15.7069 10.2506 16.0652 10.2862C16.4116 10.3205 16.5724 10.3813 16.6787 10.4501C16.8272 10.5461 16.9537 10.6726 17.0497 10.8211C17.1184 10.9274 17.1793 11.0882 17.2136 11.4345C17.2491 11.7929 17.25 12.2622 17.25 12.9613C17.25 13.6604 17.2491 14.1298 17.2136 14.4881C17.1793 14.8344 17.1185 14.9952 17.0497 15.1015C16.9537 15.2501 16.8272 15.3765 16.6787 15.4726C16.5724 15.5413 16.4116 15.6021 16.0652 15.6365C15.7069 15.672 15.2376 15.6729 14.5385 15.6729H10C9.58579 15.6729 9.25 16.0086 9.25 16.4229C9.25 16.8371 9.58579 17.1729 10 17.1729H14.5758C15.2279 17.1729 15.7721 17.1729 16.2133 17.1291C16.6748 17.0834 17.1038 16.9839 17.4931 16.7322C17.8199 16.5209 18.0981 16.2427 18.3094 15.916C18.5611 15.5266 18.6605 15.0976 18.7063 14.6361C18.75 14.195 18.75 13.6508 18.75 12.9987V12.924C18.75 12.2718 18.75 11.7276 18.7063 11.2865C18.6605 10.825 18.5611 10.396 18.3093 10.0067C18.0981 9.6799 17.8199 9.40169 17.4931 9.19042C17.1038 8.9387 16.6748 8.83927 16.2133 8.7935C15.7721 8.74975 15.2279 8.74976 14.5758 8.74977L8.91824 8.74977L9.75871 7.97395Z" fill="#55555E"/>
<path fill-rule="evenodd" clip-rule="evenodd" d="M12.4426 1.25C10.1342 1.24999 8.32519 1.24998 6.9137 1.43975C5.46897 1.63399 4.32895 2.03933 3.43414 2.93414C2.53933 3.82895 2.13399 4.96897 1.93975 6.41371C1.74998 7.82519 1.74999 9.63423 1.75 11.9426V12.0574C1.74999 14.3658 1.74998 16.1748 1.93975 17.5863C2.13399 19.031 2.53933 20.1711 3.43414 21.0659C4.32895 21.9607 5.46897 22.366 6.9137 22.5603C8.32519 22.75 10.1342 22.75 12.4426 22.75H12.5574C14.8658 22.75 16.6748 22.75 18.0863 22.5603C19.531 22.366 20.6711 21.9607 21.5659 21.0659C22.4607 20.1711 22.866 19.031 23.0603 17.5863C23.25 16.1748 23.25 14.3658 23.25 12.0574V11.9426C23.25 9.63423 23.25 7.82519 23.0603 6.41371C22.866 4.96897 22.4607 3.82895 21.5659 2.93414C20.6711 2.03933 19.531 1.63399 18.0863 1.43975C16.6748 1.24998 14.8658 1.24999 12.5574 1.25H12.4426ZM4.4948 3.9948C5.06445 3.42514 5.83517 3.09825 7.11358 2.92637C8.41356 2.75159 10.1218 2.75 12.5 2.75C14.8782 2.75 16.5864 2.75159 17.8864 2.92637C19.1648 3.09825 19.9355 3.42514 20.5052 3.9948C21.0749 4.56445 21.4018 5.33517 21.5736 6.61358C21.7484 7.91356 21.75 9.62178 21.75 12C21.75 14.3782 21.7484 16.0864 21.5736 17.3864C21.4018 18.6648 21.0749 19.4355 20.5052 20.0052C19.9355 20.5749 19.1648 20.9018 17.8864 21.0736C16.5864 21.2484 14.8782 21.25 12.5 21.25C10.1218 21.25 8.41356 21.2484 7.11358 21.0736C5.83517 20.9018 5.06445 20.5749 4.4948 20.0052C3.92514 19.4355 3.59825 18.6648 3.42637 17.3864C3.25159 16.0864 3.25 14.3782 3.25 12C3.25 9.62178 3.25159 7.91356 3.42637 6.61358C3.59825 5.33517 3.92514 4.56445 4.4948 3.9948Z" fill="#55555E"/>
</svg>
