<svg width="25" height="24" viewBox="0 0 25 24" fill="none" xmlns="http://www.w3.org/2000/svg">
<path fill-rule="evenodd" clip-rule="evenodd" d="M16.9697 3.46967C17.2626 3.17678 17.7374 3.17678 18.0303 3.46967L21.0303 6.46967C21.3232 6.76256 21.3232 7.23744 21.0303 7.53033L18.0303 10.5303C17.7374 10.8232 17.2626 10.8232 16.9697 10.5303C16.6768 10.2374 16.6768 9.76256 16.9697 9.46967L18.6893 7.75H9.50001C7.1528 7.75 5.25 9.65279 5.25 12C5.25 14.3472 7.15279 16.25 9.5 16.25H16.5C16.9142 16.25 17.25 16.5858 17.25 17C17.25 17.4142 16.9142 17.75 16.5 17.75H9.5C6.32436 17.75 3.75 15.1756 3.75 12C3.75 8.82436 6.32437 6.25 9.50001 6.25H18.6893L16.9697 4.53033C16.6768 4.23744 16.6768 3.76256 16.9697 3.46967Z" fill="#55555E"/>
</svg>
